<svg xmlns="http://www.w3.org/2000/svg" xmlns:xlink="http://www.w3.org/1999/xlink" viewBox="0 0 167.36 249.6"><defs><style>.a{fill:none;}.b{fill:#3d3d3d;}.c{fill:#fc3;}.d{fill:#fff;}.e{opacity:0.28;}.f{clip-path:url(#a);}.g{fill:#f90;}.h{opacity:0.79;}.i{fill:#ccc;}.j{fill:#494949;}</style><clipPath id="a" transform="translate(2.43 7.71)"><path class="a" d="M153.09,85c0,30-42.47,88.69-61,109.37a11.3,11.3,0,0,1-16.85,0C56.81,173.69,14.34,115,14.34,85a69.37,69.37,0,1,1,138.75,0Z"/></clipPath></defs><title>icon</title><path class="b" d="M164.93,86.86c0,33.35-42.9,88.22-66.34,115.71a19.45,19.45,0,0,1-29.75,0C45.4,175.07,2.5,120.21,2.5,86.86,2.5,41,38.86,3.76,83.71,3.76S164.93,41,164.93,86.86Z" transform="translate(2.43 7.71)"/><path class="c" d="M153.09,85c0,30-42.47,88.69-61,109.37a11.3,11.3,0,0,1-16.85,0C56.81,173.69,14.34,115,14.34,85a69.37,69.37,0,1,1,138.75,0Z" transform="translate(2.43 7.71)"/><path class="d" d="M68.86,103.67a.59.59,0,0,1,0,.06,2.15,2.15,0,1,0-1.22,2.05,2.44,2.44,0,1,1,1.22-2.12Z" transform="translate(2.43 7.71)"/><path class="d" d="M109.56,169.62a.78.78,0,0,1,0,.09,2.87,2.87,0,1,0-1.63,2.74,3.26,3.26,0,1,1,1.63-2.82Z" transform="translate(2.43 7.71)"/><path class="d" d="M117.71,138.28a.69.69,0,0,1,0,.07,2.51,2.51,0,1,0-1.42,2.4,2.85,2.85,0,1,1,1.43-2.47Z" transform="translate(2.43 7.71)"/><path class="d" d="M93.28,122.4a.78.78,0,0,1,0,.09,2.87,2.87,0,1,0-1.63,2.74,3.26,3.26,0,1,1,1.63-2.82Z" transform="translate(2.43 7.71)"/><path class="d" d="M81.88,148.86a.69.69,0,0,1,0,.07,2.51,2.51,0,1,0-1.42,2.4,2.85,2.85,0,1,1,1.43-2.47Z" transform="translate(2.43 7.71)"/><path class="d" d="M134,101.23a.78.78,0,0,1,0,.09,2.87,2.87,0,1,0-1.63,2.74,3.26,3.26,0,1,1,1.63-2.82Z" transform="translate(2.43 7.71)"/><path class="d" d="M58.27,121.59a1.37,1.37,0,0,1,0,.15,5,5,0,1,0-2.85,4.79,5.7,5.7,0,1,1,2.86-4.94Z" transform="translate(2.43 7.71)"/><path class="d" d="M90,181.83a.39.39,0,0,1,0,0,1.43,1.43,0,1,0-.81,1.37,1.63,1.63,0,1,1,.82-1.41Z" transform="translate(2.43 7.71)"/><path class="d" d="M46.06,87.39a.59.59,0,0,1,0,.06,2.15,2.15,0,1,0-1.22,2.05,2.44,2.44,0,1,1,1.22-2.12Z" transform="translate(2.43 7.71)"/><path class="d" d="M114.45,90.59a.59.59,0,0,1,0,.06,2.15,2.15,0,1,0-1.22,2.05,2.44,2.44,0,1,1,1.22-2.12Z" transform="translate(2.43 7.71)"/><path class="d" d="M92.4,82.91a.86.86,0,0,1,0,.09,3.16,3.16,0,1,0-1.79,3,3.59,3.59,0,1,1,1.8-3.11Z" transform="translate(2.43 7.71)"/><g class="e"><g class="f"><path class="g" d="M32.61,210c0,5.5-3.21,10-7.13,10s-7.13-4.5-7.13-10V93c0-5.5,3.21-10,7.13-10s7.13,4.5,7.13,10Z" transform="translate(2.43 7.71)"/><path class="g" d="M55.59,210c0,5.5-3.21,10-7.13,10s-7.13-4.5-7.13-10V93c0-5.5,3.21-10,7.13-10s7.13,4.5,7.13,10Z" transform="translate(2.43 7.71)"/><path class="g" d="M78.56,210c0,5.5-3.21,10-7.13,10s-7.13-4.5-7.13-10V93c0-5.5,3.21-10,7.13-10s7.13,4.5,7.13,10Z" transform="translate(2.43 7.71)"/><path class="g" d="M101.54,210c0,5.5-3.21,10-7.13,10s-7.13-4.5-7.13-10V93c0-5.5,3.21-10,7.13-10s7.13,4.5,7.13,10Z" transform="translate(2.43 7.71)"/><path class="g" d="M124.52,210c0,5.5-3.21,10-7.13,10s-7.13-4.5-7.13-10V93c0-5.5,3.21-10,7.13-10s7.13,4.5,7.13,10Z" transform="translate(2.43 7.71)"/><path class="g" d="M147.5,210c0,5.5-3.21,10-7.13,10s-7.13-4.5-7.13-10V93c0-5.5,3.21-10,7.13-10s7.13,4.5,7.13,10Z" transform="translate(2.43 7.71)"/></g></g><g class="f"><path class="d" d="M138.12,80.07a25,25,0,0,1-19.21-9,35.9,35.9,0,0,1-38,2.13A35.87,35.87,0,0,1,40,74.11a25.05,25.05,0,0,1-16.21,6,25.56,25.56,0,0,1,0-51.12,24.93,24.93,0,0,1,2.66.14A36.26,36.26,0,0,1,55,7.08a35.93,35.93,0,0,1,47.89-8,35.73,35.73,0,0,1,19.57-5.81,36.48,36.48,0,0,1,36.23,36.66,37.18,37.18,0,0,1-1,8.43,25.73,25.73,0,0,1,5.66,16.13A25.44,25.44,0,0,1,138.12,80.07Z" transform="translate(2.43 7.71)"/><path class="d" d="M122.46-5.71a35.44,35.44,0,0,1,35.22,35.66,36.07,36.07,0,0,1-1.06,8.68,24.62,24.62,0,0,1-18.51,40.44,24.13,24.13,0,0,1-19-9.32,34.9,34.9,0,0,1-38.27,2.31A34.88,34.88,0,0,1,40,72.85a24,24,0,0,1-16.13,6.22,24.56,24.56,0,0,1,0-49.12,23.82,23.82,0,0,1,3.3.23A35.33,35.33,0,0,1,55.54,8,34.94,34.94,0,0,1,102.89.29a34.74,34.74,0,0,1,19.57-6m0-2a36.72,36.72,0,0,0-19.57,5.62A36.93,36.93,0,0,0,54.47,6.15,37.26,37.26,0,0,0,25.86,28c-.68-.05-1.36-.08-2-.08a26.56,26.56,0,0,0,0,53.12,26,26,0,0,0,16.28-5.72A36.87,36.87,0,0,0,81,74.42a36.9,36.9,0,0,0,37.78-2,26,26,0,0,0,19.37,8.62,26.45,26.45,0,0,0,26.27-26.56,26.74,26.74,0,0,0-5.58-16.37,38.19,38.19,0,0,0,.89-8.19c0-20.76-16.7-37.66-37.22-37.66Z" transform="translate(2.43 7.71)"/></g><g class="h"><path class="i" d="M75.72,56.09a2,2,0,0,1,0,.22,7.27,7.27,0,1,0-4.13,6.94,8.26,8.26,0,1,1,4.14-7.16Z" transform="translate(2.43 7.71)"/><path class="i" d="M105.32,50.59a1.32,1.32,0,0,1,0,.14,4.85,4.85,0,1,0-2.75,4.63,5.51,5.51,0,1,1,2.76-4.77Z" transform="translate(2.43 7.71)"/><path class="i" d="M83.29,32.69a2.48,2.48,0,0,1,0,.27,9.09,9.09,0,1,0-5.16,8.68,10.33,10.33,0,1,1,5.17-8.95Z" transform="translate(2.43 7.71)"/><path class="i" d="M133.52,49.21a1.65,1.65,0,0,1,0,.18,6,6,0,1,0-3.43,5.77,6.86,6.86,0,1,1,3.44-5.95Z" transform="translate(2.43 7.71)"/><path class="i" d="M108.07,32.69a1.16,1.16,0,0,1,0,.13,4.24,4.24,0,1,0-2.41,4.05,4.82,4.82,0,1,1,2.41-4.18Z" transform="translate(2.43 7.71)"/><path class="i" d="M50.25,52.31a1.74,1.74,0,0,1,0,.19,6.36,6.36,0,1,0-3.61,6.08,7.23,7.23,0,1,1,3.62-6.26Z" transform="translate(2.43 7.71)"/></g><circle class="j" cx="85.37" cy="82.71" r="18.23"/><ellipse class="b" cx="86.15" cy="239.29" rx="36.08" ry="10.31"/></svg>