<svg id="Layer_2" data-name="Layer 2" xmlns="http://www.w3.org/2000/svg" xmlns:xlink="http://www.w3.org/1999/xlink" viewBox="0 0 364.95 105.6"><defs><style>.cls-1{fill:none;}.cls-2{fill:#fc3;}.cls-10,.cls-3{fill:#fff;}.cls-4{opacity:0.28;}.cls-5{clip-path:url(#clip-path);}.cls-6{fill:#f90;}.cls-7{opacity:0.79;}.cls-8{fill:#ccc;}.cls-9{fill:#494949;}.cls-10{font-size:81.86px;font-family:Haettenschweiler, Haettenschweiler;}.cls-11{fill:#ffce00;}</style><clipPath id="clip-path" transform="translate(1.92 5.82)"><path id="inside" class="cls-1" d="M60.26,31.74c0,11.75-16.65,34.77-23.89,42.87a4.43,4.43,0,0,1-6.6,0C22.52,66.51,5.87,43.49,5.87,31.74a27.19,27.19,0,1,1,54.39,0Z"/></clipPath></defs><title>logo_white</title><path id="inside-3" data-name="inside" class="cls-2" d="M60.26,31.74c0,11.75-16.65,34.77-23.89,42.87a4.43,4.43,0,0,1-6.6,0C22.52,66.51,5.87,43.49,5.87,31.74a27.19,27.19,0,1,1,54.39,0Z" transform="translate(1.92 5.82)"/><g id="bubbles_on_yellow" data-name="bubbles on yellow"><path class="cls-3" d="M27.24,39.06v0a.84.84,0,1,0-.48.8,1,1,0,1,1,.48-.83Z" transform="translate(1.92 5.82)"/><path class="cls-3" d="M43.2,64.91a.31.31,0,0,1,0,0A1.12,1.12,0,1,0,42.56,66a1.28,1.28,0,1,1,.64-1.11Z" transform="translate(1.92 5.82)"/><path class="cls-3" d="M46.39,52.62a.27.27,0,0,1,0,0,1,1,0,1,0-.56.94,1.12,1.12,0,1,1,.56-1Z" transform="translate(1.92 5.82)"/><path class="cls-3" d="M36.82,46.4a.31.31,0,0,1,0,0,1.12,1.12,0,1,0-.64,1.07,1.28,1.28,0,1,1,.64-1.11Z" transform="translate(1.92 5.82)"/><path class="cls-3" d="M32.35,56.77a.27.27,0,0,1,0,0,1,1,0,1,0-.56.94,1.12,1.12,0,1,1,.56-1Z" transform="translate(1.92 5.82)"/><path class="cls-3" d="M52.77,38.1a.31.31,0,0,1,0,0,1.12,1.12,0,1,0-.64,1.07,1.28,1.28,0,1,1,.64-1.11Z" transform="translate(1.92 5.82)"/><path class="cls-3" d="M23.09,46.08a.54.54,0,0,1,0,.06A2,2,0,1,0,22,48a2.23,2.23,0,1,1,1.12-1.94Z" transform="translate(1.92 5.82)"/><path class="cls-3" d="M35.54,69.7v0a.56.56,0,1,0-.32.54.64.64,0,1,1,.32-.55Z" transform="translate(1.92 5.82)"/><path class="cls-3" d="M18.31,32.68v0a.84.84,0,1,0-.48.8,1,1,0,1,1,.48-.83Z" transform="translate(1.92 5.82)"/><path class="cls-3" d="M45.11,33.93v0a.84.84,0,1,0-.48.8,1,1,0,1,1,.48-.83Z" transform="translate(1.92 5.82)"/><path class="cls-3" d="M36.47,30.92a.34.34,0,0,1,0,0,1.24,1.24,0,1,0-.7,1.18,1.41,1.41,0,1,1,.7-1.22Z" transform="translate(1.92 5.82)"/></g><g id="stripes" class="cls-4"><g class="cls-5"><path class="cls-6" d="M13,74.68c0,5.5-1.26,10-2.8,10s-2.8-4.5-2.8-10V40.95c0-5.5,1.26-10,2.8-10s2.8,4.5,2.8,10Z" transform="translate(1.92 5.82)"/><path class="cls-6" d="M22,74.68c0,5.5-1.26,10-2.8,10s-2.8-4.5-2.8-10V40.95c0-5.5,1.26-10,2.8-10s2.8,4.5,2.8,10Z" transform="translate(1.92 5.82)"/><path class="cls-6" d="M31,74.68c0,5.5-1.26,10-2.8,10s-2.8-4.5-2.8-10V40.95c0-5.5,1.26-10,2.8-10s2.8,4.5,2.8,10Z" transform="translate(1.92 5.82)"/><path class="cls-6" d="M40.05,74.68c0,5.5-1.26,10-2.8,10s-2.8-4.5-2.8-10V40.95c0-5.5,1.26-10,2.8-10s2.8,4.5,2.8,10Z" transform="translate(1.92 5.82)"/><path class="cls-6" d="M49.06,74.68c0,5.5-1.26,10-2.8,10s-2.8-4.5-2.8-10V40.95c0-5.5,1.26-10,2.8-10s2.8,4.5,2.8,10Z" transform="translate(1.92 5.82)"/><path class="cls-6" d="M58.07,74.68c0,5.5-1.26,10-2.8,10s-2.8-4.5-2.8-10V40.95c0-5.5,1.26-10,2.8-10s2.8,4.5,2.8,10Z" transform="translate(1.92 5.82)"/></g></g><g id="foam"><g class="cls-5"><path class="cls-3" d="M54.39,30.42a10.4,10.4,0,0,1-7.63-3.31A14.68,14.68,0,0,1,32,27.85a14.67,14.67,0,0,1-16,.37,10.42,10.42,0,0,1-6.4,2.2,10.63,10.63,0,0,1,0-21.26l.66,0A14.82,14.82,0,0,1,21.49.63,14.69,14.69,0,0,1,40.58-2.65a14.6,14.6,0,0,1,7.67-2.16,14.91,14.91,0,0,1,14.81,15,15.17,15.17,0,0,1-.33,3.16,10.7,10.7,0,0,1,2.17,6.47A10.58,10.58,0,0,1,54.39,30.42Z" transform="translate(1.92 5.82)"/><path class="cls-3" d="M48.25-3.82a13.89,13.89,0,0,1,13.81,14,14.14,14.14,0,0,1-.41,3.4,9.65,9.65,0,0,1-7.26,15.85,9.46,9.46,0,0,1-7.46-3.65,13.68,13.68,0,0,1-15,.9,13.67,13.67,0,0,1-16,.31,9.41,9.41,0,0,1-6.32,2.44,9.63,9.63,0,0,1,0-19.26,9.34,9.34,0,0,1,1.29.09A13.85,13.85,0,0,1,22,1.57,13.73,13.73,0,0,1,32.91-3.82a13.62,13.62,0,0,1,7.67,2.35,13.62,13.62,0,0,1,7.67-2.35m0-2a15.6,15.6,0,0,0-7.67,2A15.69,15.69,0,0,0,21-.3,15.81,15.81,0,0,0,9.63,8.16h0a11.63,11.63,0,0,0,0,23.26,11.41,11.41,0,0,0,6.45-2,15.67,15.67,0,0,0,16-.42,15.69,15.69,0,0,0,14.54-.63,11.38,11.38,0,0,0,7.77,3A11.58,11.58,0,0,0,65.9,19.79a11.71,11.71,0,0,0-2.11-6.71,16.2,16.2,0,0,0,.27-2.92,15.91,15.91,0,0,0-15.81-16Z" transform="translate(1.92 5.82)"/></g></g><g id="bubbles" class="cls-7"><path class="cls-8" d="M29.93,20.41a.78.78,0,0,1,0,.08,2.85,2.85,0,1,0-1.62,2.72,3.24,3.24,0,1,1,1.62-2.81Z" transform="translate(1.92 5.82)"/><path class="cls-8" d="M41.54,18.25a.52.52,0,0,1,0,.06,1.9,1.9,0,1,0-1.08,1.81,2.16,2.16,0,1,1,1.08-1.87Z" transform="translate(1.92 5.82)"/><path class="cls-8" d="M32.9,11.23a1,1,0,0,1,0,.11,3.56,3.56,0,1,0-2,3.4,4,4,0,1,1,2-3.51Z" transform="translate(1.92 5.82)"/><path class="cls-8" d="M52.59,17.71a.65.65,0,0,1,0,.07A2.37,2.37,0,1,0,51.24,20a2.69,2.69,0,1,1,1.35-2.33Z" transform="translate(1.92 5.82)"/><path class="cls-8" d="M42.61,11.23a.45.45,0,0,1,0,0,1.66,1.66,0,1,0-.94,1.59,1.89,1.89,0,1,1,.95-1.64Z" transform="translate(1.92 5.82)"/><path class="cls-8" d="M19.95,18.93a.68.68,0,0,1,0,.07,2.49,2.49,0,1,0-1.42,2.38,2.83,2.83,0,1,1,1.42-2.46Z" transform="translate(1.92 5.82)"/></g><circle id="dot_inside" data-name="dot inside" class="cls-9" cx="34.68" cy="33.64" r="7.15"/><text class="cls-10" transform="translate(76.93 78.54)">PubAdvisor</text><ellipse id="shadow_under" data-name="shadow under" class="cls-11" cx="34.98" cy="95.02" rx="14.14" ry="4.04"/></svg>