<svg version="1.1" xmlns="http://www.w3.org/2000/svg" xmlns:xlink="http://www.w3.org/1999/xlink" x="0px" y="0px"
	 viewBox="0 0 367.1 100.7" style="enable-background:new 0 0 367.1 100.7;" xml:space="preserve">
<style type="text/css">
	.st0{fill:#FFCC33;}
	.st1{fill:#FFFFFF;}
	.st2{opacity:0.28;}
	.st3{clip-path:url(#inside_3_);}
	.st4{fill:#FF9900;}
	.st5{clip-path:url(#inside_4_);}
	.st6{opacity:0.79;}
	.st7{fill:#CCCCCC;}
	.st8{fill:#494949;}
	.st9{fill:none;}
	.st10{fill:#FFCE00;}
</style>
<g id="Layer_2">
	<path id="inside" class="st0" d="M60.3,31.7c0,11.8-16.6,34.8-23.9,42.9c-1.8,2-4.8,2-6.6,0C22.5,66.5,5.9,43.5,5.9,31.7
		c0-15,12.2-27.2,27.2-27.2S60.3,16.7,60.3,31.7z"/>
	<g id="bubbles_on_yellow">
		<path class="st1" d="M27.2,39.1C27.2,39.1,27.2,39.1,27.2,39.1c0-0.4-0.4-0.8-0.8-0.8c-0.5,0-0.8,0.4-0.8,0.8s0.4,0.8,0.8,0.8
			c0.1,0,0.3,0,0.4-0.1C26.6,40,26.5,40,26.3,40c-0.5,0-1-0.4-1-1c0-0.5,0.4-1,1-1S27.2,38.5,27.2,39.1z"/>
		<path class="st1" d="M43.2,64.9C43.2,64.9,43.2,64.9,43.2,64.9c0-0.6-0.5-1-1.1-1c-0.6,0-1.1,0.5-1.1,1.1s0.5,1.1,1.1,1.1
			c0.2,0,0.3,0,0.5-0.1c-0.2,0.1-0.4,0.2-0.6,0.2c-0.7,0-1.3-0.6-1.3-1.3c0-0.7,0.6-1.3,1.3-1.3S43.2,64.2,43.2,64.9z"/>
		<path class="st1" d="M46.4,52.6C46.4,52.6,46.4,52.6,46.4,52.6c0-0.5-0.5-0.9-1-0.9c-0.5,0-1,0.4-1,1s0.4,1,1,1
			c0.2,0,0.3,0,0.4-0.1c-0.2,0.1-0.4,0.1-0.6,0.1c-0.6,0-1.1-0.5-1.1-1.1c0-0.6,0.5-1.1,1.1-1.1S46.4,52,46.4,52.6z"/>
		<path class="st1" d="M36.8,46.4C36.8,46.4,36.8,46.4,36.8,46.4c0-0.6-0.5-1-1.1-1c-0.6,0-1.1,0.5-1.1,1.1c0,0.6,0.5,1.1,1.1,1.1
			c0.2,0,0.3,0,0.5-0.1c-0.2,0.1-0.4,0.2-0.6,0.2c-0.7,0-1.3-0.6-1.3-1.3c0-0.7,0.6-1.3,1.3-1.3C36.2,45.1,36.8,45.7,36.8,46.4z"/>
		<path class="st1" d="M32.3,56.8C32.3,56.8,32.3,56.8,32.3,56.8c0-0.5-0.5-0.9-1-0.9c-0.5,0-1,0.4-1,1c0,0.5,0.4,1,1,1
			c0.2,0,0.3,0,0.4-0.1c-0.2,0.1-0.4,0.1-0.6,0.1c-0.6,0-1.1-0.5-1.1-1.1s0.5-1.1,1.1-1.1C31.8,55.7,32.3,56.2,32.3,56.8z"/>
		<path class="st1" d="M52.8,38.1C52.8,38.1,52.8,38.1,52.8,38.1c0-0.6-0.5-1-1.1-1c-0.6,0-1.1,0.5-1.1,1.1c0,0.6,0.5,1.1,1.1,1.1
			c0.2,0,0.3,0,0.5-0.1c-0.2,0.1-0.4,0.2-0.6,0.2c-0.7,0-1.3-0.6-1.3-1.3s0.6-1.3,1.3-1.3C52.2,36.8,52.8,37.4,52.8,38.1z"/>
		<path class="st1" d="M23.1,46.1C23.1,46.1,23.1,46.1,23.1,46.1c-0.1-1-0.9-1.8-2-1.8c-1.1,0-2,0.9-2,2c0,1.1,0.9,2,2,2
			c0.3,0,0.6-0.1,0.8-0.2c-0.3,0.2-0.7,0.3-1.1,0.3c-1.2,0-2.2-1-2.2-2.2c0-1.2,1-2.2,2.2-2.2C22.1,43.8,23.1,44.8,23.1,46.1z"/>
		<path class="st1" d="M35.5,69.7C35.5,69.7,35.5,69.7,35.5,69.7c0-0.3-0.3-0.5-0.6-0.5c-0.3,0-0.6,0.3-0.6,0.6
			c0,0.3,0.3,0.6,0.6,0.6c0.1,0,0.2,0,0.2-0.1c-0.1,0.1-0.2,0.1-0.3,0.1c-0.4,0-0.6-0.3-0.6-0.6s0.3-0.6,0.6-0.6
			S35.5,69.3,35.5,69.7z"/>
		<path class="st1" d="M18.3,32.7C18.3,32.7,18.3,32.7,18.3,32.7c0-0.4-0.4-0.8-0.8-0.8c-0.5,0-0.8,0.4-0.8,0.8
			c0,0.5,0.4,0.8,0.8,0.8c0.1,0,0.3,0,0.4-0.1c-0.1,0.1-0.3,0.1-0.5,0.1c-0.5,0-1-0.4-1-1s0.4-1,1-1C17.9,31.7,18.3,32.1,18.3,32.7z
			"/>
		<path class="st1" d="M45.1,33.9C45.1,33.9,45.1,33.9,45.1,33.9c0-0.4-0.4-0.8-0.8-0.8c-0.5,0-0.8,0.4-0.8,0.8s0.4,0.8,0.8,0.8
			c0.1,0,0.3,0,0.4-0.1c-0.1,0.1-0.3,0.1-0.5,0.1c-0.5,0-1-0.4-1-1c0-0.5,0.4-1,1-1S45.1,33.4,45.1,33.9z"/>
		<path class="st1" d="M36.5,30.9C36.5,30.9,36.5,30.9,36.5,30.9c0-0.6-0.6-1.1-1.2-1.1c-0.7,0-1.2,0.6-1.2,1.2
			c0,0.7,0.6,1.2,1.2,1.2c0.2,0,0.4,0,0.5-0.1c-0.2,0.1-0.4,0.2-0.7,0.2c-0.8,0-1.4-0.6-1.4-1.4c0-0.8,0.6-1.4,1.4-1.4
			C35.8,29.5,36.5,30.1,36.5,30.9z"/>
	</g>
	<g id="stripes" class="st2">
		<defs>
			<path id="inside_2_" class="st2" d="M60.3,31.7c0,11.8-16.6,34.8-23.9,42.9c-1.8,2-4.8,2-6.6,0C22.5,66.5,5.9,43.5,5.9,31.7
				c0-15,12.2-27.2,27.2-27.2S60.3,16.7,60.3,31.7z"/>
		</defs>
		<clipPath id="inside_3_">
			<use xlink:href="#inside_2_"  style="overflow:visible;"/>
		</clipPath>
		<g class="st3">
			<path class="st4" d="M13,74.7c0,5.5-1.3,10-2.8,10s-2.8-4.5-2.8-10V40.9c0-5.5,1.3-10,2.8-10s2.8,4.5,2.8,10V74.7z"/>
		</g>
		<g class="st3">
			<path class="st4" d="M22,74.7c0,5.5-1.3,10-2.8,10s-2.8-4.5-2.8-10V40.9c0-5.5,1.3-10,2.8-10s2.8,4.5,2.8,10V74.7z"/>
		</g>
		<g class="st3">
			<path class="st4" d="M31,74.7c0,5.5-1.3,10-2.8,10s-2.8-4.5-2.8-10V40.9c0-5.5,1.3-10,2.8-10s2.8,4.5,2.8,10V74.7z"/>
		</g>
		<g class="st3">
			<path class="st4" d="M40.1,74.7c0,5.5-1.3,10-2.8,10s-2.8-4.5-2.8-10V40.9c0-5.5,1.3-10,2.8-10s2.8,4.5,2.8,10V74.7z"/>
		</g>
		<g class="st3">
			<path class="st4" d="M49.1,74.7c0,5.5-1.3,10-2.8,10s-2.8-4.5-2.8-10V40.9c0-5.5,1.3-10,2.8-10s2.8,4.5,2.8,10V74.7z"/>
		</g>
		<g class="st3">
			<path class="st4" d="M58.1,74.7c0,5.5-1.3,10-2.8,10c-1.5,0-2.8-4.5-2.8-10V40.9c0-5.5,1.3-10,2.8-10c1.5,0,2.8,4.5,2.8,10V74.7z
				"/>
		</g>
	</g>
	<g id="foam">
		<defs>
			<path id="inside_1_" d="M60.3,31.7c0,11.8-16.6,34.8-23.9,42.9c-1.8,2-4.8,2-6.6,0C22.5,66.5,5.9,43.5,5.9,31.7
				c0-15,12.2-27.2,27.2-27.2S60.3,16.7,60.3,31.7z"/>
		</defs>
		<clipPath id="inside_4_">
			<use xlink:href="#inside_1_"  style="overflow:visible;"/>
		</clipPath>
		<g class="st5">
			<path class="st1" d="M54.4,30.4c-2.9,0-5.6-1.2-7.6-3.3c-2.4,1.6-5.1,2.4-8,2.4c-2.3,0-4.7-0.6-6.7-1.6c-2.5,1.7-5.3,2.6-8.3,2.6
				c-2.7,0-5.4-0.8-7.7-2.2c-1.8,1.4-4.1,2.2-6.4,2.2c-5.8,0-10.5-4.8-10.5-10.6S3.8,9.2,9.6,9.2c0.2,0,0.4,0,0.7,0
				c2.1-4.6,6.3-7.8,11.2-8.6c2.8-3.5,7-5.4,11.4-5.4c2.7,0,5.4,0.7,7.7,2.2c2.3-1.4,4.9-2.2,7.7-2.2c8.2,0,14.8,6.7,14.8,15
				c0,1.1-0.1,2.1-0.3,3.2c1.4,1.8,2.2,4.1,2.2,6.5C64.9,25.6,60.2,30.4,54.4,30.4z"/>
			<path class="st1" d="M48.3-3.8c7.6,0,13.8,6.3,13.8,14c0,1.2-0.1,2.3-0.4,3.4c1.4,1.7,2.3,3.9,2.3,6.2c0,5.3-4.3,9.6-9.5,9.6
				c-3,0-5.7-1.4-7.5-3.7c-2.3,1.7-5.1,2.7-8.2,2.7c-2.5,0-4.8-0.7-6.8-1.8c-2.3,1.7-5.1,2.7-8.2,2.7c-2.9,0-5.6-0.9-7.8-2.4
				c-1.7,1.5-3.9,2.4-6.3,2.4c-5.3,0-9.5-4.3-9.5-9.6c0-5.3,4.3-9.6,9.5-9.6c0.4,0,0.9,0,1.3,0.1c1.8-4.6,6.1-8.1,11.1-8.7
				c2.5-3.3,6.5-5.4,10.9-5.4c2.8,0,5.5,0.9,7.7,2.4C42.8-3,45.4-3.8,48.3-3.8 M48.3-5.8c-2.7,0-5.3,0.7-7.7,2c-2.3-1.3-5-2-7.7-2
				c-4.6,0-8.9,2-12,5.5c-4.9,0.9-9.1,4-11.3,8.5c0,0,0,0,0,0c-6.3,0-11.5,5.2-11.5,11.6c0,6.4,5.2,11.6,11.5,11.6
				c2.3,0,4.6-0.7,6.5-2c2.3,1.3,5,2,7.7,2c3,0,5.9-0.8,8.4-2.4c2.1,1,4.4,1.5,6.7,1.5c2.8,0,5.5-0.7,7.9-2.1c2.1,2,4.9,3,7.8,3
				c6.3,0,11.5-5.2,11.5-11.6c0-2.4-0.7-4.8-2.1-6.7c0.2-1,0.3-1.9,0.3-2.9C64.1,1.3,57-5.8,48.3-5.8L48.3-5.8z"/>
		</g>
	</g>
	<g id="bubbles" class="st6">
		<path class="st7" d="M29.9,20.4C29.9,20.4,29.9,20.5,29.9,20.4c-0.1-1.4-1.3-2.6-2.9-2.6c-1.6,0-2.9,1.3-2.9,2.9
			c0,1.6,1.3,2.9,2.9,2.9c0.4,0,0.9-0.1,1.2-0.3c-0.5,0.3-1,0.4-1.6,0.4c-1.8,0-3.2-1.4-3.2-3.2c0-1.8,1.4-3.2,3.2-3.2
			C28.5,17.2,29.9,18.6,29.9,20.4z"/>
		<path class="st7" d="M41.5,18.3C41.5,18.3,41.5,18.3,41.5,18.3c-0.1-0.9-0.9-1.7-1.9-1.7c-1.1,0-1.9,0.9-1.9,1.9
			c0,1.1,0.9,1.9,1.9,1.9c0.3,0,0.6-0.1,0.8-0.2c-0.3,0.2-0.7,0.3-1.1,0.3c-1.2,0-2.2-1-2.2-2.2c0-1.2,1-2.2,2.2-2.2
			S41.5,17.1,41.5,18.3z"/>
		<path class="st7" d="M32.9,11.2c0,0,0,0.1,0,0.1C32.8,9.5,31.2,8,29.3,8c-2,0-3.6,1.6-3.6,3.6c0,2,1.6,3.6,3.6,3.6
			c0.6,0,1.1-0.1,1.5-0.3c-0.6,0.3-1.3,0.5-2,0.5c-2.2,0-4-1.8-4-4c0-2.2,1.8-4,4-4S32.9,9,32.9,11.2z"/>
		<path class="st7" d="M52.6,17.7C52.6,17.7,52.6,17.8,52.6,17.7c-0.1-1.2-1.1-2.2-2.4-2.2c-1.3,0-2.4,1.1-2.4,2.4
			c0,1.3,1.1,2.4,2.4,2.4c0.4,0,0.7-0.1,1-0.2c-0.4,0.2-0.9,0.4-1.3,0.4c-1.5,0-2.7-1.2-2.7-2.7c0-1.5,1.2-2.7,2.7-2.7
			S52.6,16.2,52.6,17.7z"/>
		<path class="st7" d="M42.6,11.2C42.6,11.3,42.6,11.3,42.6,11.2c0-0.8-0.8-1.5-1.7-1.5c-0.9,0-1.7,0.7-1.7,1.7
			c0,0.9,0.7,1.7,1.7,1.7c0.3,0,0.5-0.1,0.7-0.2c-0.3,0.2-0.6,0.3-0.9,0.3c-1,0-1.9-0.8-1.9-1.9c0-1,0.8-1.9,1.9-1.9
			C41.8,9.3,42.6,10.2,42.6,11.2z"/>
		<path class="st7" d="M19.9,18.9C19.9,18.9,19.9,19,19.9,18.9c-0.1-1.2-1.2-2.3-2.5-2.3c-1.4,0-2.5,1.1-2.5,2.5
			c0,1.4,1.1,2.5,2.5,2.5c0.4,0,0.8-0.1,1.1-0.2c-0.4,0.2-0.9,0.4-1.4,0.4c-1.6,0-2.8-1.3-2.8-2.8c0-1.6,1.3-2.8,2.8-2.8
			S19.9,17.4,19.9,18.9z"/>
	</g>
	<circle id="dot_inside" class="st8" cx="32.8" cy="27.8" r="7.1"/>
	<g>
		<rect x="75" y="15.4" class="st9" width="288" height="82.9"/>
		<path class="st1" d="M88.7,51.6v21.1H76.4V15.4h13.2c5.2,0,9.1,0.7,11.7,2c2.5,1.3,3.8,4.1,3.8,8.2v15.9c0,3.8-1,6.4-3.1,8
			C99.9,51,95.5,51.7,88.7,51.6z M92.9,40.4V26.6c0-2-1.4-3-4.2-3v19.8C91.5,43.4,92.9,42.4,92.9,40.4z"/>
		<path class="st1" d="M134,72.7h-11.4v-1.6c-1.5,1.5-3.8,2.2-7.1,2.2c-2.2,0-4.2-0.6-5.8-1.8c-1.6-1.2-2.5-2.7-2.5-4.7V26.3h11.4
			v37.7c0,1.4,0.7,2.1,2,2.1c1.3,0,2-0.7,2-2V26.3H134V72.7z"/>
		<path class="st1" d="M145.9,71.2l-1,1.6h-8.6V15.4h11.4v12.3c1.4-1.1,3.7-1.7,7.1-1.7c2.1,0,3.9,0.6,5.7,1.7
			c1.7,1.1,2.6,2.7,2.6,4.8v33.3c0,2.3-1,4.2-3.1,5.6c-2.1,1.4-4.5,2-7.4,2C150.4,73.4,148.1,72.6,145.9,71.2z M151.7,64.1V35.3
			c0-1.4-0.7-2.1-2-2.1c-1.3,0-2,0.7-2,2v28.8c0,1.4,0.7,2.1,2,2.1C151.1,66.2,151.7,65.5,151.7,64.1z"/>
		<path class="st1" d="M199.7,72.7h-12.5l-2.1-15.4h-5.6l-2.1,15.4h-12.5l9.4-57.3h16L199.7,72.7z M184.1,49.4l-1.8-17.1l-1.7,17.1
			H184.1z"/>
		<path class="st1" d="M228.3,72.7h-8.6l-1-1.6c-2,1.5-4.2,2.2-6.7,2.2c-2.9,0-5.4-0.7-7.4-2c-2-1.4-3.1-3.2-3.1-5.6V32.4
			c0-2,0.8-3.5,2.4-4.7s3.6-1.7,5.9-1.7c3.2,0,5.5,0.6,7.1,1.7V15.4h11.4V72.7z M216.9,64.1V35.2c0-1.4-0.7-2-2-2
			c-1.3,0-2,0.7-2,2.1v28.7c0,1.4,0.7,2.1,2,2.1C216.2,66.2,216.9,65.5,216.9,64.1z"/>
		<path class="st1" d="M260.2,26.3l-8.3,46.4h-13.7l-8.4-46.4h11.5l3.9,27.4l3.8-27.4H260.2z"/>
		<path class="st1" d="M272.9,23.8h-11.4v-8.4h11.4V23.8z M272.9,72.7h-11.4V26.3h11.4V72.7z"/>
		<path class="st1" d="M275.3,54.1h11.4v9.8c0,1.6,0.6,2.4,1.9,2.4c1.3,0,1.9-1.5,1.9-4.5c0-3.9-0.8-6.4-2.4-7.6
			c-5.9-3.1-9.5-5.3-10.8-6.5c-1.2-1.2-1.8-3.1-1.8-5.6v-6.2c0-6.5,4.4-9.8,13.3-9.8c8.6,0,12.9,3.1,12.9,9.4v9.2h-11.1l0.2-5.6
			c0-3.9-0.7-5.8-2.1-5.8c-1.4,0-2.1,1.2-2.1,3.6c0,2.5,0.3,4.4,0.9,5.7c0.6,1.3,4.1,3.5,10.5,6.6c2.6,1.9,4,4.4,4,7.5v7
			c0,6.5-4.5,9.8-13.5,9.8c-8.8,0-13.2-3.1-13.2-9.4V54.1z"/>
		<path class="st1" d="M304.1,63.6V35.8c0-6.5,4.5-9.8,13.6-9.8c3.5,0,6.6,0.8,9.2,2.3c2.7,1.5,4,3.9,4,7.1V64
			c0,6.3-4.4,9.4-13.2,9.4C308.6,73.4,304.1,70.1,304.1,63.6z M319.4,63.9V35.5c0-1.5-0.7-2.3-2-2.3c-1.3,0-2,0.8-2,2.3v28.4
			c0,1.6,0.7,2.4,2,2.4C318.8,66.2,319.4,65.5,319.4,63.9z"/>
		<path class="st1" d="M360.1,45.5h-11.4V35.5c0-1.4-0.7-2.1-2-2.1c-1.3,0-2,0.7-2,2v37.3h-11.4V26.3h11.4v1.6
			c1.5-1.3,3.9-1.9,7-1.9c2.3,0,4.2,0.6,5.8,1.8c1.6,1.2,2.4,2.8,2.4,4.8V45.5z"/>
	</g>
	<ellipse id="shadow_under" class="st10" cx="33.1" cy="89.2" rx="14.1" ry="4"/>
</g>
<g id="Layer_1">
	<g>
	</g>
	<g>
	</g>
	<g>
	</g>
	<g>
	</g>
	<g>
	</g>
	<g>
	</g>
	<g>
	</g>
	<g>
	</g>
	<g>
	</g>
	<g>
	</g>
	<g>
	</g>
	<g>
	</g>
	<g>
	</g>
	<g>
	</g>
	<g>
	</g>
</g>
</svg>